HIERARCHY
ROOT joint_Root
{
	OFFSET 0.0 0.0 0.0
	CHANNELS 6 Xposition Yposition Zposition Zrotation Xrotation Yrotation 
	JOINT Hips
	{
		OFFSET 4.5925 91.4895 -427.239
		CHANNELS 6 Xposition Yposition Zposition Zrotation Xrotation Yrotation 
		JOINT Spine
		{
			OFFSET 15.7357 0.0 0.0
			CHANNELS 6 Xposition Yposition Zposition Zrotation Xrotation Yrotation 
			JOINT Chest
			{
				OFFSET 8.98455 -0.406207 0.0
				CHANNELS 6 Xposition Yposition Zposition Zrotation Xrotation Yrotation 
				JOINT Neck
				{
					OFFSET 16.3773 0.0 0.0
					CHANNELS 6 Xposition Yposition Zposition Zrotation Xrotation Yrotation 
					JOINT Head
					{
						OFFSET 6.45672 0.0 0.0
						CHANNELS 6 Xposition Yposition Zposition Zrotation Xrotation Yrotation 
						End Site
						{
							OFFSET 0.0 0.0 0.0
						}
					}
				}
				JOINT Shoulder_L
				{
					OFFSET 12.9942 -0.242716 4.98039
					CHANNELS 6 Xposition Yposition Zposition Zrotation Xrotation Yrotation 
					JOINT UpperArm_L
					{
						OFFSET 5.34809 0.0 0.0
						CHANNELS 6 Xposition Yposition Zposition Zrotation Xrotation Yrotation 
						JOINT LowerArm_L
						{
							OFFSET 24.3286 1.87007e-05 0.0
							CHANNELS 6 Xposition Yposition Zposition Zrotation Xrotation Yrotation 
							JOINT Hand_L
							{
								OFFSET 22.2916 0.0 0.0
								CHANNELS 6 Xposition Yposition Zposition Zrotation Xrotation Yrotation 
								End Site
								{
									OFFSET 0.0 0.0 0.0
								}
							}
						}
					}
				}
				JOINT Shoulder_R
				{
					OFFSET 12.9945 -0.242716 -4.98039
					CHANNELS 6 Xposition Yposition Zposition Zrotation Xrotation Yrotation 
					JOINT UpperArm_R
					{
						OFFSET -5.34813 0.0 0.0
						CHANNELS 6 Xposition Yposition Zposition Zrotation Xrotation Yrotation 
						JOINT LowerArm_R
						{
							OFFSET -24.3289 0.000322201 0.0
							CHANNELS 6 Xposition Yposition Zposition Zrotation Xrotation Yrotation 
							JOINT Hand_R
							{
								OFFSET -22.2915 -0.000108084 0.0
								CHANNELS 6 Xposition Yposition Zposition Zrotation Xrotation Yrotation 
								End Site
								{
									OFFSET 0.0 0.0 0.0
								}
							}
						}
					}
				}
			}
		}
		JOINT UpperLeg_L
		{
			OFFSET -2.19248 -6.46944 0.0
			CHANNELS 6 Xposition Yposition Zposition Zrotation Xrotation Yrotation 
			JOINT LowerLeg_L
			{
				OFFSET 39.0811 0.0 -1.23785e-05
				CHANNELS 6 Xposition Yposition Zposition Zrotation Xrotation Yrotation 
				JOINT Foot_L
				{
					OFFSET 40.9854 0.0 -1.26872e-05
					CHANNELS 6 Xposition Yposition Zposition Zrotation Xrotation Yrotation 
					JOINT Toes_L
					{
						OFFSET 11.7543 0.0 0.0
						CHANNELS 6 Xposition Yposition Zposition Zrotation Xrotation Yrotation 
						End Site
						{
							OFFSET 0.0 0.0 0.0
						}
					}
				}
			}
		}
		JOINT UpperLeg_R
		{
			OFFSET -2.19251 6.46944 0.0
			CHANNELS 6 Xposition Yposition Zposition Zrotation Xrotation Yrotation 
			JOINT LowerLeg_R
			{
				OFFSET -39.0811 -0.00228153 -0.0401928
				CHANNELS 6 Xposition Yposition Zposition Zrotation Xrotation Yrotation 
				JOINT Foot_R
				{
					OFFSET -40.9854 0.0 0.0
					CHANNELS 6 Xposition Yposition Zposition Zrotation Xrotation Yrotation 
					JOINT Toes_R
					{
						OFFSET -11.7543 0.0 0.0
						CHANNELS 6 Xposition Yposition Zposition Zrotation Xrotation Yrotation 
						End Site
						{
							OFFSET 0.0 0.0 0.0
						}
					}
				}
			}
		}
	}
}
MOTION
Frames:	6
Frame Time:	0.0333333
0.000000 0.000000 0.000000 0.000000 0.000000 -0.000000 0.027901 92.441000 0.553169 89.806400 -6.285190 2.006160 15.735700 0.000005 -0.000001 73.356300 85.823800 -69.225500 8.984550 -0.406207 -0.000000 0.346600 -2.658640 8.265160 16.377300 -0.000001 -0.000001 5.457920 -1.380130 -1.991220 6.456720 -0.000001 -0.000000 0.825477 -2.537500 1.490370 12.994200 -0.242716 4.980390 -83.308500 -13.820400 -63.842600 5.348090 -0.000007 -0.000001 -44.493500 -69.863200 -86.073500 24.328600 0.000019 0.000005 3.901650 4.064410 -43.899200 22.291600 -0.000001 0.000005 16.536400 5.400220 -2.944370 12.994500 -0.242716 -4.980390 87.491800 9.042890 -74.427100 -5.348130 -0.000001 -0.000004 -53.017400 21.034300 0.040395 -24.328900 0.000322 -0.000009 1.502830 3.111040 -25.815600 -22.291500 -0.000108 -0.000004 17.304400 5.463100 -5.114650 -2.192480 -6.469440 -0.000000 -176.392000 -17.804800 -1.099460 39.081100 -0.000007 -0.000012 -0.087711 0.253662 19.074300 40.985400 -0.000006 -0.000013 0.480095 8.358270 -65.692600 11.754300 -0.000000 0.000003 -0.000113 -0.001146 -16.621400 -2.192510 6.469440 -0.000001 174.457000 25.282600 178.938000 -39.081100 -0.002282 -0.040193 -0.079846 0.241495 19.003400 -40.985400 0.000008 0.000006 3.072620 22.866700 -65.852700 -11.754300 -0.000006 -0.000006 -0.000241 -0.003966 -16.734900
0.000000 0.000000 0.000000 0.000000 0.000000 -0.000000 -0.187402 92.452000 0.480540 89.867100 -5.677730 2.023560 15.735700 0.000005 -0.000001 73.788800 85.762000 -69.855200 8.984550 -0.406207 -0.000000 0.475883 -2.615490 7.873690 16.377300 -0.000001 -0.000001 5.349140 -1.358830 -1.942950 6.456720 -0.000001 -0.000000 0.673132 -2.085350 1.429790 12.994200 -0.242716 4.980390 -83.890300 -12.707400 -64.052100 5.348090 -0.000007 -0.000001 -40.993700 -67.115700 -79.314600 24.328600 0.000019 0.000005 2.958980 2.441800 -50.506200 22.291600 -0.000001 0.000005 17.757200 5.404400 -3.081080 12.994500 -0.242716 -4.980390 87.433800 9.101590 -74.181000 -5.348130 -0.000001 -0.000004 -53.850500 20.797300 -0.466090 -24.328900 0.000322 -0.000009 1.304510 2.769520 -25.252000 -22.291500 -0.000108 -0.000004 17.368200 5.461770 -5.065660 -2.192480 -6.469440 -0.000000 -176.280000 -17.641300 -1.159700 39.081100 -0.000007 -0.000012 -0.088629 0.257380 19.001300 40.985400 -0.000006 -0.000013 0.397534 8.802470 -65.526700 11.754300 -0.000000 0.000003 -0.000121 -0.001208 -16.623700 -2.192510 6.469440 -0.000001 174.484000 25.689200 179.075000 -39.081100 -0.002282 -0.040193 -0.083661 0.254095 18.897800 -40.985400 0.000008 0.000006 2.827510 22.736700 -65.731200 -11.754300 -0.000006 -0.000006 -0.000121 -0.002013 -16.655600
0.000000 0.000000 0.000000 0.000000 0.000000 -0.000000 -0.413608 92.443700 0.380942 89.879200 -5.142910 2.089840 15.735700 0.000005 -0.000001 73.962800 85.657300 -70.239000 8.984550 -0.406207 -0.000000 0.678842 -2.628640 7.458800 16.377300 -0.000001 -0.000001 5.059310 -1.224670 -1.793310 6.456720 -0.000001 -0.000000 0.558964 -1.512180 1.243550 12.994200 -0.242716 4.980390 -84.536000 -11.402900 -64.181100 5.348090 -0.000007 -0.000001 -37.109300 -63.232400 -71.024600 24.328600 0.000019 0.000005 2.567340 1.521440 -59.368300 22.291600 -0.000001 0.000005 18.658800 5.389100 -2.587020 12.994500 -0.242716 -4.980390 87.414900 9.080870 -74.036100 -5.348130 -0.000001 -0.000004 -54.871700 21.003600 -1.239520 -24.328900 0.000322 -0.000009 1.038040 2.286980 -24.443100 -22.291500 -0.000108 -0.000004 17.456400 5.459340 -4.976720 -2.192480 -6.469440 -0.000000 -176.127000 -17.375400 -1.295860 39.081100 -0.000007 -0.000012 -0.089715 0.258357 19.149800 40.985400 -0.000006 -0.000013 0.301311 9.077050 -65.454700 11.754300 -0.000000 0.000003 -0.000108 -0.001099 -16.619600 -2.192510 6.469440 -0.000001 174.621000 25.918700 179.089000 -39.081100 -0.002282 -0.040193 -0.088429 0.265757 19.047300 -40.985400 0.000008 0.000006 2.931180 22.355100 -65.836600 -11.754300 -0.000006 -0.000006 -0.000188 -0.003114 -16.700300
0.000000 0.000000 0.000000 0.000000 0.000000 -0.000000 -0.654091 92.440200 0.325681 89.892000 -4.695160 2.198380 15.735700 0.000005 -0.000001 74.604100 85.555600 -71.109100 8.984550 -0.406207 -0.000000 0.892857 -2.568320 7.005400 16.377300 -0.000001 -0.000001 4.786520 -1.080900 -1.682420 6.456720 -0.000001 -0.000000 0.314890 -1.063340 1.160280 12.994200 -0.242716 4.980390 -85.165500 -10.218500 -64.510100 5.348090 -0.000007 -0.000001 -34.279000 -57.875100 -62.117300 24.328600 0.000019 0.000005 2.895660 1.054210 -70.009000 22.291600 -0.000001 0.000005 18.783600 5.376130 -2.177170 12.994500 -0.242716 -4.980390 87.382600 9.120100 -73.911900 -5.348130 -0.000001 -0.000004 -55.846300 21.852500 -2.045870 -24.328900 0.000322 -0.000009 0.779488 1.786950 -23.600500 -22.291500 -0.000108 -0.000004 17.672400 5.456720 -4.881440 -2.192480 -6.469440 -0.000000 -175.943000 -17.106100 -1.292470 39.081100 -0.000007 -0.000012 -0.090319 0.259474 19.192200 40.985400 -0.000006 -0.000013 0.175815 9.327690 -65.365900 11.754300 -0.000000 0.000003 -0.000121 -0.001207 -16.623700 -2.192510 6.469440 -0.000001 174.710000 26.067800 179.240000 -39.081100 -0.002282 -0.040193 -0.092361 0.276789 19.070100 -40.985400 0.000008 0.000006 2.896100 22.071600 -65.862100 -11.754300 -0.000006 -0.000006 -0.000107 -0.001784 -16.646300
0.000000 0.000000 0.000000 0.000000 0.000000 -0.000000 -0.894181 92.427900 0.261580 89.861500 -4.147900 2.265430 15.735700 0.000005 -0.000001 75.183500 85.448300 -71.923500 8.984550 -0.406207 -0.000000 1.115820 -2.515930 6.539950 16.377300 -0.000001 -0.000001 4.409120 -0.953136 -1.497250 6.456720 -0.000001 -0.000000 0.085142 -0.641616 1.019150 12.994200 -0.242716 4.980390 -85.931400 -8.909860 -65.332800 5.348090 -0.000007 -0.000001 -31.690400 -50.991700 -52.612000 24.328600 0.000019 0.000005 3.993360 0.661080 -80.611100 22.291600 -0.000001 0.000005 18.366500 5.360000 -1.679410 12.994500 -0.242716 -4.980390 87.367400 9.134110 -73.846700 -5.348130 -0.000001 -0.000004 -56.985100 22.891300 -2.762840 -24.328900 0.000322 -0.000009 0.690580 1.631160 -22.981500 -22.291500 -0.000108 -0.000004 17.707200 5.450580 -4.660250 -2.192480 -6.469440 -0.000000 -175.752000 -16.732200 -1.419290 39.081100 -0.000007 -0.000012 -0.090749 0.258207 19.364400 40.985400 -0.000006 -0.000013 0.065445 9.542460 -65.330200 11.754300 -0.000000 0.000003 -0.000122 -0.001216 -16.624000 -2.192510 6.469440 -0.000001 174.875000 26.290900 179.325000 -39.081100 -0.002282 -0.040193 -0.098791 0.294159 19.144000 -40.985400 0.000008 0.000006 2.918150 21.707700 -65.930600 -11.754300 -0.000006 -0.000006 -0.000080 -0.001333 -16.628000
0.000000 0.000000 0.000000 0.000000 0.000000 -0.000000 -1.095230 92.419700 0.224788 89.825300 -3.682520 2.351950 15.735700 0.000005 -0.000001 76.100600 85.349700 -73.083400 8.984550 -0.406207 -0.000000 1.333960 -2.402310 6.057970 16.377300 -0.000001 -0.000001 4.032130 -0.705790 -1.292640 6.456720 -0.000001 -0.000000 -0.109326 -0.110195 0.825723 12.994200 -0.242716 4.980390 -86.876300 -7.141450 -66.300100 5.348090 -0.000007 -0.000001 -30.213100 -41.916700 -44.152400 24.328600 0.000019 0.000005 5.459310 0.088779 -89.068600 22.291600 -0.000001 0.000005 17.494900 5.360710 -1.701370 12.994500 -0.242716 -4.980390 87.370900 9.119080 -73.842100 -5.348130 -0.000001 -0.000004 -58.179500 24.211000 -3.255320 -24.328900 0.000322 -0.000009 0.658880 1.571510 -22.782900 -22.291500 -0.000108 -0.000004 17.506200 5.443980 -4.425790 -2.192480 -6.469440 -0.000000 -175.560000 -16.402300 -1.479090 39.081100 -0.000007 -0.000012 -0.093859 0.265298 19.483000 40.985400 -0.000006 -0.000013 -0.040859 9.723890 -65.288400 11.754300 -0.000000 0.000003 -0.000123 -0.001225 -16.624300 -2.192510 6.469440 -0.000001 175.025000 26.523000 179.442000 -39.081100 -0.002282 -0.040193 -0.096634 0.287097 19.196400 -40.985400 0.000008 0.000006 3.041930 21.399700 -66.031700 -11.754300 -0.000006 -0.000006 -0.000000 -0.000001 -16.573800
